<svg xmlns="http://www.w3.org/2000/svg" width="24.558" height="28.067" viewBox="0 0 24.558 28.067">
  <path id="Icon_awesome-copy" data-name="Icon awesome-copy" d="M17.542,24.558v2.193a1.316,1.316,0,0,1-1.316,1.316H1.316A1.316,1.316,0,0,1,0,26.751V6.578A1.316,1.316,0,0,1,1.316,5.262H5.262V21.489a3.073,3.073,0,0,0,3.07,3.07Zm0-18.857V0H8.332A1.316,1.316,0,0,0,7.017,1.316V21.489A1.316,1.316,0,0,0,8.332,22.8h14.91a1.316,1.316,0,0,0,1.316-1.316V7.017h-5.7A1.319,1.319,0,0,1,17.542,5.7ZM24.173,4,20.558.385A1.316,1.316,0,0,0,19.628,0H19.3V5.262h5.262V4.93A1.316,1.316,0,0,0,24.173,4Z" fill="#fff"/>
</svg>
