<svg xmlns="http://www.w3.org/2000/svg" width="23.508" height="26.867" viewBox="0 0 23.508 26.867">
  <path id="Icon_awesome-trash" data-name="Icon awesome-trash" d="M22.669,1.679h-6.3L15.879.7A1.259,1.259,0,0,0,14.75,0h-6A1.245,1.245,0,0,0,7.63.7l-.493.981H.84a.84.84,0,0,0-.84.84V4.2a.84.84,0,0,0,.84.84H22.669a.84.84,0,0,0,.84-.84V2.519A.84.84,0,0,0,22.669,1.679ZM2.792,24.505a2.519,2.519,0,0,0,2.514,2.361H18.2a2.519,2.519,0,0,0,2.513-2.361L21.829,6.717H1.679Z" transform="translate(0 0)" fill="#fff"/>
</svg>
